<svg width="192" height="48" viewBox="0 0 192 48" fill="none" xmlns="http://www.w3.org/2000/svg">
	 <style>
        path {
            fill: black;
        }
        @media (prefers-color-scheme: dark) {
            path { fill: white; }
        }
    </style>
<path d="M40.9 7.39998C32 -1.40002 17.7 -2.00002 8.19995 6.39998L13.7 12.6C19.8 7.19998 28.9 7.49998 34.7 12.9L34.7999 13C36.2999 14.7 39 14.9 40.7 13.4C42.2999 11.9 42.5 9.29998 40.9 7.39998Z" fill="url(#paint0_linear_5_30)"/>
<path d="M7.60002 41C16.5 49.8 30.8 50.4 40.3 42L34.8 35.8C28.7 41.2 19.6 40.9 13.8 35.5L13.7 35.4C12.2 33.7 9.50002 33.5 7.80002 35C6.10002 36.6 6.00002 39.2 7.60002 41Z" fill="url(#paint1_linear_5_30)"/>
<path d="M41 40.9C49.8 32 50.4 17.7 42 8.19995L35.8 13.7C41.2 19.8 40.9 28.9 35.5 34.7L35.4 34.7999C33.7 36.2999 33.5 39 35 40.7C36.6 42.2999 39.2 42.5 41 40.9Z" fill="url(#paint2_linear_5_30)"/>
<path d="M7.39998 7.60002C-1.40002 16.5 -2.00002 30.8 6.39998 40.3L12.6 34.8C7.19998 28.7 7.49998 19.6 12.9 13.8L13 13.7C14.7 12.2 14.9 9.50002 13.4 7.80002C11.9 6.10002 9.19998 6.00002 7.39998 7.60002Z" fill="url(#paint3_linear_5_30)"/>
<path d="M61.8999 31.8999H63.7999V25.9999H66.9999C67.7999 25.9999 68.5999 25.8999 69.1999 25.6999C69.8999 25.4999 70.3999 25.1999 70.8999 24.7999C71.3999 24.3999 71.7999 23.8999 71.9999 23.2999C72.2999 22.6999 72.3999 21.9999 72.3999 21.1999C72.3999 20.4999 72.2999 19.8999 72.0999 19.2999C71.8999 18.6999 71.5999 18.1999 71.1999 17.7999C70.7999 17.3999 70.2999 16.9999 69.5999 16.7999C68.8999 16.5999 68.0999 16.3999 67.2999 16.3999H61.8999V31.8999ZM63.7999 24.2999V18.1999H67.0999C68.0999 18.1999 68.9999 18.4999 69.5999 18.9999C70.1999 19.4999 70.4999 20.2999 70.4999 21.1999C70.4999 21.6999 70.3999 22.0999 70.2999 22.3999C70.1999 22.7999 69.8999 23.0999 69.6999 23.3999C69.3999 23.6999 68.9999 23.8999 68.5999 24.0999C68.0999 24.1999 67.5999 24.2999 66.8999 24.2999H63.7999Z" fill="white"/>
<path d="M84.3 26.4001C84.3 25.4001 84.1 24.5001 83.7 23.7001C83.3 22.9001 82.7 22.3001 82 21.8001C81.2 21.4001 80.4 21.1001 79.4 21.1001C78.7 21.1001 78 21.2001 77.4 21.5001C76.8 21.8001 76.2 22.2001 75.8 22.6001C75.4 23.1001 75 23.6001 74.7 24.3001C74.4 25.0001 74.3 25.7001 74.3 26.5001C74.3 27.3001 74.4 28.0001 74.7 28.7001C75 29.4001 75.3 30.0001 75.8 30.4001C76.3 30.8001 76.8 31.2001 77.5 31.5001C78.2 31.8001 78.9 31.9001 79.6 31.9001C80.5 31.9001 81.4 31.7001 82.1 31.4001C82.8 31.0001 83.4 30.5001 83.9 29.9001L82.7 29.0001C82.3 29.4001 81.9 29.8001 81.4 30.0001C80.9 30.3001 80.3 30.4001 79.7 30.4001C78.7 30.4001 77.9 30.1001 77.3 29.5001C76.6 28.9001 76.3 28.1001 76.2 27.1001H84.4C84.3 27.0001 84.3 26.7001 84.3 26.4001ZM79.5 22.8001C80.3 22.8001 81 23.1001 81.6 23.6001C82.1 24.1001 82.5 24.8001 82.6 25.7001H76.2C76.4 24.8001 76.7 24.1001 77.4 23.6001C77.9 23.1001 78.6 22.8001 79.5 22.8001Z" fill="white"/>
<path d="M95.2999 21.2999V22.9C94.8999 22.3 94.2999 21.9 93.6999 21.6C93.0999 21.3 92.3999 21.2 91.6999 21.2C90.6999 21.2 89.7999 21.4 88.9999 21.9C88.1999 22.4 87.5999 23 87.0999 23.9C86.6999 24.6999 86.3999 25.7 86.3999 26.7C86.3999 27.5 86.4999 28.2 86.7999 28.9C87.0999 29.6 87.3999 30.1999 87.8999 30.5999C88.3999 31.0999 88.8999 31.4 89.5999 31.7C90.1999 32 90.8999 32.0999 91.6999 32.0999C92.4999 32.0999 93.1999 31.8999 93.7999 31.5999C94.3999 31.2999 94.9999 30.7999 95.3999 30.2999V32H97.0999V21.2999H95.2999ZM91.7999 30.5C90.6999 30.5 89.8999 30.1 89.1999 29.4C88.4999 28.7 88.1999 27.8 88.1999 26.7C88.1999 25.5 88.4999 24.6 89.1999 23.9C89.8999 23.1999 90.7999 22.7999 91.7999 22.7999C92.2999 22.7999 92.7999 22.9 93.1999 23.1C93.5999 23.3 93.9999 23.6 94.2999 23.9C94.5999 24.3 94.8999 24.7 94.9999 25.2C95.1999 25.7 95.2999 26.2 95.2999 26.7C95.2999 27.3 95.1999 27.8 94.9999 28.2C94.7999 28.7 94.4999 29.1 94.1999 29.4C93.8999 29.7 93.4999 30 93.0999 30.2C92.6999 30.4 92.2999 30.5 91.7999 30.5Z" fill="white"/>
<path d="M105.6 21.2C104.9 21.2 104.2 21.4 103.6 21.7C103 22 102.5 22.5 102.1 23.2V21.2999H100.3V32H102.1V26.9C102.1 26.2 102.2 25.6 102.5 25C102.8 24.4 103.1 24 103.6 23.7C104.1 23.4 104.7 23.2 105.3 23.2C105.5 23.2 105.7 23.2 106 23.2V21.2C106 21.2 105.8 21.2 105.6 21.2Z" fill="white"/>
<path d="M108.3 31.9001H110.1V15.8H108.3V31.9001Z" fill="white"/>
<path d="M121 32.0999C122.3 32.0999 123.4 31.7999 124.5 31.2999C125.5 30.7999 126.4 30.1 127.1 29.2L125.7 28C124.4 29.6 122.9 30.2999 121.1 30.2999C120.4 30.2999 119.8 30.2 119.2 30C118.6 29.8 118.1 29.6 117.6 29.2C117.1 28.9 116.7 28.4 116.4 28C116.1 27.5 115.8 26.9999 115.6 26.2999C115.4 25.6999 115.3 24.9999 115.3 24.2999C115.3 23.0999 115.5 22 116 21.1C116.5 20.2 117.1 19.4 118 18.9C118.9 18.4 119.9 18.1 121.1 18.1C122 18.1 122.8 18.3 123.6 18.7C124.4 19.1 125.1 19.6999 125.7 20.4L127.1 19.2C126.5 18.5 125.9 18 125.3 17.5C124.6 17.1 123.9 16.7 123.2 16.5C122.5 16.3 121.8 16.2 121.1 16.2C120.1 16.2 119.2 16.3 118.4 16.6C117.6 16.9 116.8 17.3 116.2 17.7C115.6 18.2 115.1 18.8 114.6 19.4C114.2 20.1 113.8 20.8 113.6 21.6C113.4 22.4 113.3 23.2 113.3 24.1C113.3 25.1 113.4 26 113.7 26.9C114 27.8 114.3 28.4999 114.8 29.0999C115.3 29.6999 115.8 30.2 116.5 30.7C117.1 31.1 117.9 31.5 118.6 31.7C119.4 32 120.2 32.0999 121 32.0999Z" fill="white"/>
<path d="M134.3 32.1C135.3 32.1 136.3 31.9001 137.1 31.4001C137.9 31.0001 138.6 30.3 139.1 29.5C139.6 28.7 139.8 27.7001 139.8 26.7001C139.8 25.6001 139.6 24.7 139.1 23.9C138.6 23.1 138 22.4 137.1 22C136.3 21.6 135.3 21.3 134.3 21.3C133.5 21.3 132.7 21.4001 132 21.7001C131.3 22.0001 130.7 22.4 130.2 22.9C129.7 23.4 129.4 24.0001 129.1 24.6C128.8 25.3 128.7 26.0001 128.7 26.7001C128.7 27.5001 128.8 28.2 129.1 28.8C129.4 29.5 129.7 30 130.2 30.5C130.7 31 131.3 31.4001 132 31.7001C132.7 31.9001 133.5 32.1 134.3 32.1ZM134.3 30.4001C133.6 30.4001 132.9 30.2001 132.4 29.9001C131.8 29.6001 131.4 29.1 131.1 28.5C130.8 27.9 130.6 27.3 130.6 26.6C130.6 25.9 130.7 25.3001 131.1 24.7001C131.4 24.1001 131.8 23.7 132.4 23.3C133 23 133.6 22.8 134.3 22.8C135 22.8 135.6 23 136.2 23.3C136.8 23.6 137.2 24.1001 137.5 24.7001C137.8 25.3001 138 26.0001 138 26.7001C138 27.4001 137.8 28.1001 137.5 28.7001C137.2 29.3001 136.7 29.7 136.2 30.1C135.6 30.3 135 30.4001 134.3 30.4001Z" fill="white"/>
<path d="M148.2 21.2C147.4 21.2 146.7 21.4 146 21.7C145.3 22 144.8 22.5 144.3 23.2V21.4H142.5V32.0999H144.3V26.7999C144.3 25.5999 144.6 24.7 145.2 24C145.8 23.3 146.6 23 147.6 23C148 23 148.4 23.1 148.7 23.2C149 23.3 149.3 23.4999 149.5 23.7999C149.7 24.0999 149.9 24.3999 150 24.7999C150.1 25.1999 150.2 25.8 150.2 26.4V32H152V25.7C152 24.2 151.7 23.1 151 22.4C150.3 21.5 149.4 21.2 148.2 21.2Z" fill="white"/>
<path d="M162.2 21.3L159 29.7001H158.9L155.6 21.3H153.7L158.1 32H159.8L164.1 21.3H162.2Z" fill="white"/>
<path d="M175.1 26.4001C175.1 25.4001 174.9 24.5001 174.5 23.7001C174.1 22.9001 173.5 22.3001 172.8 21.8001C172 21.4001 171.2 21.1001 170.2 21.1001C169.5 21.1001 168.8 21.2001 168.2 21.5001C167.6 21.8001 167 22.2001 166.6 22.6001C166.2 23.1001 165.8 23.6001 165.5 24.3001C165.2 25.0001 165.1 25.7001 165.1 26.5001C165.1 27.3001 165.2 28.0001 165.5 28.7001C165.8 29.4001 166.1 30.0001 166.6 30.4001C167.1 30.9001 167.6 31.2001 168.3 31.5001C169 31.8001 169.7 31.9001 170.4 31.9001C171.3 31.9001 172.2 31.7001 172.9 31.4001C173.6 31.0001 174.2 30.5001 174.7 29.9001L173.5 28.8001C173.1 29.2001 172.7 29.6001 172.2 29.8001C171.7 30.1001 171.1 30.2001 170.5 30.2001C169.5 30.2001 168.7 29.9001 168.1 29.3001C167.4 28.7001 167.1 27.9001 167 26.9001H175.2C175.1 27.0001 175.1 26.7001 175.1 26.4001ZM170.3 22.8001C171.1 22.8001 171.8 23.1001 172.4 23.6001C172.9 24.1001 173.3 24.8001 173.4 25.7001H167C167.2 24.8001 167.5 24.1001 168.2 23.6001C168.7 23.1001 169.4 22.8001 170.3 22.8001Z" fill="white"/>
<path d="M183.1 21.2C182.4 21.2 181.7 21.4 181.1 21.7C180.5 22 180 22.5 179.6 23.2V21.2999H177.8V32H179.6V26.9C179.6 26.2 179.7 25.6 180 25C180.3 24.4 180.6 24 181.1 23.7C181.6 23.4 182.2 23.2 182.8 23.2C183 23.2 183.2 23.2 183.5 23.2V21.2C183.4 21.2 183.3 21.2 183.1 21.2Z" fill="white"/>
<path d="M188.6 32.1C189 32.1 189.4 32.1 189.7 32C190 31.9 190.3 31.9 190.5 31.8C190.7 31.7 190.9 31.6 191.2 31.5L190.7 29.9C190.1 30.3 189.5 30.4 188.9 30.4C188.4 30.4 188.1 30.3 187.9 30C187.7 29.7 187.6 29.2 187.6 28.5V22.8H191.1V21.3H187.6V17.5L185.8 17.7V21.3H184.4V22.8H185.8V28.7C185.9 31 186.8 32.1 188.6 32.1Z" fill="white"/>
<defs>
<linearGradient id="paint0_linear_5_30" x1="41.0633" y1="5.87878" x2="13.6752" y2="9.86738" gradientUnits="userSpaceOnUse">
<stop stop-color="white"/>
<stop offset="0.7995" stop-color="#9A8EA5" stop-opacity="0.3"/>
<stop offset="0.9807" stop-color="#784290" stop-opacity="0"/>
</linearGradient>
<linearGradient id="paint1_linear_5_30" x1="7.37102" y1="42.5924" x2="34.7591" y2="38.6038" gradientUnits="userSpaceOnUse">
<stop stop-color="white"/>
<stop offset="0.7995" stop-color="#9A8EA5" stop-opacity="0.3"/>
<stop offset="0.9807" stop-color="#784290" stop-opacity="0"/>
</linearGradient>
<linearGradient id="paint2_linear_5_30" x1="42.5739" y1="41.0817" x2="38.5853" y2="13.6937" gradientUnits="userSpaceOnUse">
<stop stop-color="white"/>
<stop offset="0.7995" stop-color="#9A8EA5" stop-opacity="0.3"/>
<stop offset="0.9807" stop-color="#784290" stop-opacity="0"/>
</linearGradient>
<linearGradient id="paint3_linear_5_30" x1="5.86038" y1="7.38942" x2="9.84898" y2="34.7775" gradientUnits="userSpaceOnUse">
<stop stop-color="white"/>
<stop offset="0.7995" stop-color="#9A8EA5" stop-opacity="0.3"/>
<stop offset="0.9807" stop-color="#784290" stop-opacity="0"/>
</linearGradient>
</defs>
</svg>
